<svg viewBox="0 0 512 512" fill="none" xmlns="http://www.w3.org/2000/svg">
<path d="M256 512C397.385 512 512 397.385 512 256C512 114.615 397.385 0 256 0C114.615 0 0 114.615 0 256C0 397.385 114.615 512 256 512Z" fill="#FFD400"/>
<path d="M512 256C512 251 511.841 246.037 511.558 241.108L368.725 98.275L362 118L340.711 117L287.724 64L64 287.724L117 340.711L143.003 413.453L241.108 511.558C246.037 511.841 251 512 256 512C397.385 512 512 397.385 512 256Z" fill="#FF9F00"/>
<path d="M448 287.724V224.275L395.949 213.925C393.025 204.475 389.424 195.475 384.699 186.7L413.725 143.275L368.725 98.275L325.3 127.301C316.525 122.576 307.524 118.975 298.075 116.051L287.724 64H224.275L213.925 116.051C204.475 118.975 195.475 122.576 186.7 127.301L143.275 98.275L98.275 143.275L127.301 186.7C122.576 195.475 118.975 204.476 116.051 213.925L64 224.276V287.725L116.051 298.075C118.975 307.525 122.576 316.525 127.301 325.3L98.275 368.725L143.275 413.725L186.7 384.699C195.475 389.424 204.476 393.025 213.925 395.949L224.276 448H287.725L298.075 395.949C307.525 393.025 316.525 389.424 325.3 384.699L368.725 413.725L413.725 368.725L384.699 325.3C389.424 316.525 393.025 307.524 395.949 298.075L448 287.724ZM256 334.75C212.575 334.75 177.25 299.425 177.25 256C177.25 212.575 212.575 177.25 256 177.25C299.425 177.25 334.75 212.575 334.75 256C334.75 299.425 299.425 334.75 256 334.75Z" fill="#5A5A5A"/>
<path d="M395.949 298.075C393.025 307.525 389.424 316.525 384.699 325.3L413.725 368.725L368.725 413.725L325.3 384.699C316.525 389.424 307.524 393.025 298.075 395.949L287.724 448H256V334.75C299.425 334.75 334.75 299.425 334.75 256C334.75 212.575 299.425 177.25 256 177.25V64H287.724L298.074 116.051C307.524 118.975 316.524 122.576 325.299 127.301L368.724 98.275L413.724 143.275L384.699 186.7C389.424 195.475 393.025 204.476 395.949 213.925L448 224.276V287.725L395.949 298.075Z" fill="#444444"/>
</svg>
