<?xml version="1.0" encoding="iso-8859-1"?>
<svg viewBox="0 0 512 512" xmlns="http://www.w3.org/2000/svg" xmlns:xlink="http://www.w3.org/1999/xlink">
	<path d="m512 256c0 141.386719-114.613281 256-256 256s-256-114.613281-256-256 114.613281-256 256-256 256 114.613281 256 256zm0 0" fill="#ffaa20"/>
	<path d="m511.734375 267.347656-129.542969-129.546875c-14.035156-14.972656-30.6875-27.457031-49.234375-36.707031l-47.957031-48.34375h-58v32.695312c-72.199219 12.238282-129.316406 69.355469-141.554688 141.554688h-32.695312v58l48.53125 48.3125c9.238281 18.410156 21.664062 34.957031 36.558594 48.90625l18.90625 19.023438v32.734374l77.050781 77.054688c7.320313.628906 14.722656.96875 22.203125.96875 137.582031 0 249.796875-108.535156 255.734375-244.652344zm0 0" fill="#ff8900"/>
	<path d="m232.152344 292.585938h47.695312v43.089843h-47.695312zm0 0" fill="#ffc473"/>
	<path d="m256 292.585938h23.847656v43.089843h-23.847656zm0 0" fill="#ffaa20"/>
	<path d="m317.390625 212.492188c-2.5625-37.730469-34.742187-59.148438-61.390625-59.148438s-58.828125 21.417969-61.390625 59.148438c-6.894531 1.292968-11.789063 7.734374-11.019531 14.820312l1.1875 10.964844c.804687 7.4375 7.546875 12.867187 14.988281 12.058594l1.28125-.136719c15.222656 39.632812 39.796875 49.835937 54.953125 52.15625 15.160156-2.320313 39.730469-12.523438 54.957031-52.15625l1.28125.136719c7.4375.808593 14.183594-4.621094 14.988281-12.058594l1.1875-10.964844c.765626-7.085938-4.128906-13.53125-11.023437-14.820312zm0 0" fill="#ffdba9"/>
	<path d="m328.414062 227.3125-1.1875 10.964844c-.808593 7.4375-7.550781 12.863281-14.988281 12.058594l-1.285156-.136719c-15.222656 39.632812-39.792969 49.832031-54.953125 52.152343v-149.003906c26.285156 0 57.953125 20.832032 61.273438 57.613282.046874.53125.085937 1.039062.117187 1.53125 6.894531 1.289062 11.789063 7.738281 11.023437 14.820312zm0 0" fill="#ffc473"/>
	<path d="m287.214844 156.628906-14.621094 29.808594s4.777344 24.152344 31.355469 32.492188v22.34375h7.871093c3.148438-7.335938 4.882813-21.859376 5.566407-28.78125h.003906s7.789063-36.742188-30.175781-55.863282zm0 0" fill="#703700"/>
	<path d="m256 139.097656s-63.679688 4.875-70.492188 71.617188c0 0 3.132813 1.125 8.453126 2.269531.710937 7.09375 2.441406 21.121094 5.515624 28.289063h7.871094v-26.277344c19.855469 1.742187 49.703125-1.078125 74.246094-26.308594 39.929688-41.058594-14.15625-51.652344-25.59375-49.589844zm0 0" fill="#c06200"/>
	<path d="m281.589844 188.6875c-8.132813 8.363281-16.851563 14.261719-25.589844 18.351562v-67.941406c11.433594-2.058594 65.523438 8.53125 25.589844 49.589844zm0 0" fill="#9a4c00"/>
	<path d="m289.558594 228.527344h-33.558594v39.464844h11.921875v-28.402344h21.636719zm0 0" fill="#ffaa20"/>
	<path d="m217.097656 228.527344h29.25v11.0625h-29.25zm0 0" fill="#ffc473"/>
	<path d="m279.847656 311.707031c-13.269531 12.933594-34.425781 12.933594-47.695312 0l-47.203125 9.542969c-16.40625 3.316406-28.207031 17.738281-28.207031 34.480469v78.246093h198.511718v-78.246093c0-16.742188-11.796875-31.164063-28.207031-34.480469zm0 0" fill="#ab3ccc"/>
	<path d="m355.261719 355.730469v78.25h-99.261719v-112.570313c8.609375 0 17.21875-3.230468 23.851562-9.699218l47.199219 9.539062c16.410157 3.320312 28.210938 17.738281 28.210938 34.480469zm0 0" fill="#802897"/>
	<path d="m459.25 227h-32.695312c-12.238282-72.199219-69.355469-129.316406-141.554688-141.554688v-32.695312h-58v32.695312c-72.199219 12.238282-129.316406 69.355469-141.554688 141.554688h-32.695312v58h32.695312c12.238282 72.199219 69.355469 129.316406 141.554688 141.554688v32.695312h58v-32.695312c72.199219-12.238282 129.316406-69.355469 141.554688-141.554688h32.695312zm-203.25 172c-78.851562 0-143-64.148438-143-143s64.148438-143 143-143 143 64.148438 143 143-64.148438 143-143 143zm0 0" fill="#fff"/>
	<path d="m426.558594 227c-12.238282-72.199219-69.359375-129.320312-141.558594-141.558594v-32.691406h-29v60.25c78.851562 0 143 64.148438 143 143s-64.148438 143-143 143v60.25h29v-32.691406c72.199219-12.238282 129.320312-69.359375 141.558594-141.558594h32.691406v-58zm0 0" fill="#fff5ca"/>
</svg>